<?xml version="1.0" encoding="UTF-8" standalone="no"?>
<!-- Created with Inkscape (http://www.inkscape.org/) -->

<svg
   xmlns:dc="http://purl.org/dc/elements/1.1/"
   xmlns:cc="http://creativecommons.org/ns#"
   xmlns:rdf="http://www.w3.org/1999/02/22-rdf-syntax-ns#"
   xmlns:svg="http://www.w3.org/2000/svg"
   xmlns="http://www.w3.org/2000/svg"
   xmlns:sodipodi="http://sodipodi.sourceforge.net/DTD/sodipodi-0.dtd"
   xmlns:inkscape="http://www.inkscape.org/namespaces/inkscape"
   width="25.966965mm"
   height="8.3910713mm"
   viewBox="0 0 25.966965 8.3910713"
   id="svg6691"
   version="1.1"
   inkscape:version="0.91+devel r"
   sodipodi:docname="tab_settings-active.svg">
  <defs
     id="defs6693" />
  <sodipodi:namedview
     id="base"
     pagecolor="#ffffff"
     bordercolor="#666666"
     borderopacity="1.0"
     inkscape:pageopacity="0.0"
     inkscape:pageshadow="2"
     inkscape:zoom="3.959798"
     inkscape:cx="61.571375"
     inkscape:cy="30.535144"
     inkscape:document-units="mm"
     inkscape:current-layer="g5747"
     showgrid="false"
     fit-margin-top="0"
     fit-margin-left="0"
     fit-margin-right="0"
     fit-margin-bottom="0"
     inkscape:window-width="1440"
     inkscape:window-height="866"
     inkscape:window-x="0"
     inkscape:window-y="34"
     inkscape:window-maximized="0" />
  <metadata
     id="metadata6696">
    <rdf:RDF>
      <cc:Work
         rdf:about="">
        <dc:format>image/svg+xml</dc:format>
        <dc:type
           rdf:resource="http://purl.org/dc/dcmitype/StillImage" />
        <dc:title />
      </cc:Work>
    </rdf:RDF>
  </metadata>
  <g
     inkscape:label="Layer 1"
     inkscape:groupmode="layer"
     id="layer1"
     transform="translate(100.67396,-48.631846)">
    <rect
       style="fill:#000000;stroke:#666666;stroke-width:0.26500668;stroke-linecap:butt;stroke-linejoin:miter;stroke-opacity:1;stroke-miterlimit:4;stroke-dasharray:none"
       id="rect5653-9"
       width="25.702383"
       height="8.1264877"
       x="-100.54168"
       y="48.764137"
       rx="0.79375005" />
    <g
       id="g5747"
       transform="matrix(0.9375,0,0,0.9375,-167.47045,-18.342594)">
      <g
         style="font-style:normal;font-weight:normal;font-size:3.27719212px;line-height:125%;font-family:Sans;letter-spacing:0px;word-spacing:0px;fill:#000000;fill-opacity:1;stroke:none"
         id="text5655-6">
        <path
           d="m 81.686854,75.299986 0,0.288034 q -0.126415,-0.07361 -0.254431,-0.110413 -0.128015,-0.0368 -0.260831,-0.0368 -0.200024,0 -0.299236,0.06561 -0.09761,0.06401 -0.09761,0.196823 0,0.120014 0.07361,0.179222 0.07361,0.05921 0.366443,0.115213 l 0.118415,0.0224 q 0.219226,0.04161 0.331239,0.16642 0.113614,0.124815 0.113614,0.324839 0,0.265632 -0.188823,0.41605 -0.188822,0.148817 -0.524863,0.148817 -0.132816,0 -0.278433,-0.0288 -0.145617,-0.0272 -0.315238,-0.08321 l 0,-0.304036 q 0.16482,0.08481 0.315238,0.128015 0.150418,0.04161 0.284834,0.04161 0.195223,0 0.302436,-0.07841 0.107213,-0.08001 0.107213,-0.222426 0,-0.204825 -0.392047,-0.283234 l -0.0128,-0.0032 -0.110414,-0.0224 q -0.25443,-0.04961 -0.371244,-0.16642 -0.116814,-0.118414 -0.116814,-0.321638 0,-0.257631 0.174421,-0.396848 0.174421,-0.140817 0.49766,-0.140817 0.144017,0 0.276833,0.0272 0.132816,0.0256 0.260831,0.07841 z"
           style="font-style:normal;font-variant:normal;font-weight:normal;font-stretch:normal;font-size:3.27719212px;font-family:'DejaVu Sans Mono';-inkscape-font-specification:'DejaVu Sans Mono';fill:#ffffff"
           id="path12683" />
        <path
           d="m 83.880716,76.060077 0,0.144017 -1.275352,0 0,0.0096 q 0,0.292835 0.152018,0.452854 0.153618,0.160019 0.432052,0.160019 0.140817,0 0.294435,-0.0448 0.153618,-0.0448 0.328039,-0.136016 l 0,0.292835 q -0.16802,0.06881 -0.324839,0.102412 -0.155218,0.0352 -0.300836,0.0352 -0.41765,0 -0.652878,-0.24963 -0.235228,-0.25123 -0.235228,-0.691282 0,-0.428852 0.230428,-0.684882 0.230427,-0.256031 0.614473,-0.256031 0.342441,0 0.539265,0.232028 0.198423,0.232028 0.198423,0.633676 z m -0.294435,-0.08641 q -0.0064,-0.259231 -0.123215,-0.393647 -0.115213,-0.136016 -0.332839,-0.136016 -0.212826,0 -0.350442,0.140817 -0.137617,0.140817 -0.16322,0.390447 l 0.969716,-0.0016 z"
           style="font-style:normal;font-variant:normal;font-weight:normal;font-stretch:normal;font-size:3.27719212px;font-family:'DejaVu Sans Mono';-inkscape-font-specification:'DejaVu Sans Mono';fill:#ffffff"
           id="path12685" />
        <path
           d="m 85.055257,74.728717 0,0.508861 0.66888,0 0,0.228828 -0.66888,0 0,0.972916 q 0,0.198424 0.07521,0.276833 0.07521,0.07841 0.262431,0.07841 l 0.33124,0 0,0.235228 -0.360043,0 q -0.33124,0 -0.467256,-0.132816 -0.136016,-0.132816 -0.136016,-0.457655 l 0,-0.972916 -0.478458,0 0,-0.228828 0.478458,0 0,-0.508861 0.294435,0 z"
           style="font-style:normal;font-variant:normal;font-weight:normal;font-stretch:normal;font-size:3.27719212px;font-family:'DejaVu Sans Mono';-inkscape-font-specification:'DejaVu Sans Mono';fill:#ffffff"
           id="path12687" />
        <path
           d="m 87.026693,74.728717 0,0.508861 0.66888,0 0,0.228828 -0.66888,0 0,0.972916 q 0,0.198424 0.07521,0.276833 0.07521,0.07841 0.262431,0.07841 l 0.33124,0 0,0.235228 -0.360043,0 q -0.33124,0 -0.467256,-0.132816 -0.136017,-0.132816 -0.136017,-0.457655 l 0,-0.972916 -0.478457,0 0,-0.228828 0.478457,0 0,-0.508861 0.294436,0 z"
           style="font-style:normal;font-variant:normal;font-weight:normal;font-stretch:normal;font-size:3.27719212px;font-family:'DejaVu Sans Mono';-inkscape-font-specification:'DejaVu Sans Mono';fill:#ffffff"
           id="path12689" />
        <path
           d="m 88.42526,75.237578 0.75369,0 0,1.563387 0.58407,0 0,0.228828 -1.462575,0 0,-0.228828 0.58407,0 0,-1.334559 -0.459255,0 0,-0.228828 z m 0.459255,-0.697683 0.294435,0 0,0.372844 -0.294435,0 0,-0.372844 z"
           style="font-style:normal;font-variant:normal;font-weight:normal;font-stretch:normal;font-size:3.27719212px;font-family:'DejaVu Sans Mono';-inkscape-font-specification:'DejaVu Sans Mono';fill:#ffffff"
           id="path12691" />
        <path
           d="m 91.668848,75.91926 0,1.110533 -0.296035,0 0,-1.110533 q 0,-0.241629 -0.08481,-0.355243 -0.08481,-0.113613 -0.265632,-0.113613 -0.206425,0 -0.318438,0.147217 -0.110413,0.145618 -0.110413,0.419251 l 0,1.012921 -0.294435,0 0,-1.792215 0.294435,0 0,0.268833 q 0.07841,-0.153619 0.212825,-0.232028 0.134416,-0.08001 0.318438,-0.08001 0.273633,0 0.408049,0.180822 0.136016,0.179221 0.136016,0.544065 z"
           style="font-style:normal;font-variant:normal;font-weight:normal;font-stretch:normal;font-size:3.27719212px;font-family:'DejaVu Sans Mono';-inkscape-font-specification:'DejaVu Sans Mono';fill:#ffffff"
           id="path12693" />
        <path
           d="m 93.331447,76.119284 q 0,-0.33124 -0.108813,-0.50246 -0.107213,-0.172821 -0.313638,-0.172821 -0.216025,0 -0.329639,0.172821 -0.113614,0.17122 -0.113614,0.50246 0,0.331239 0.113614,0.50566 0.115214,0.172821 0.33284,0.172821 0.203224,0 0.310437,-0.174421 0.108813,-0.174421 0.108813,-0.50406 z m 0.294435,0.795295 q 0,0.403248 -0.190423,0.611273 -0.190422,0.208025 -0.560067,0.208025 -0.121614,0 -0.25443,-0.0224 -0.132816,-0.0224 -0.265632,-0.06561 l 0,-0.291234 q 0.156819,0.07361 0.284834,0.108813 0.128016,0.0352 0.235228,0.0352 0.238429,0 0.347242,-0.129616 0.108813,-0.129615 0.108813,-0.411249 l 0,-0.0128 0,-0.200024 q -0.07041,0.150418 -0.192023,0.224027 -0.121615,0.07361 -0.296035,0.07361 -0.313638,0 -0.50086,-0.25123 -0.187223,-0.25123 -0.187223,-0.67208 0,-0.422451 0.187223,-0.673681 0.187222,-0.25123 0.50086,-0.25123 0.17282,0 0.292835,0.06881 0.120014,0.06881 0.195223,0.212826 l 0,-0.232028 0.294435,0 0,1.6706 z"
           style="font-style:normal;font-variant:normal;font-weight:normal;font-stretch:normal;font-size:3.27719212px;font-family:'DejaVu Sans Mono';-inkscape-font-specification:'DejaVu Sans Mono';fill:#ffffff"
           id="path12695" />
        <path
           d="m 95.486906,75.299986 0,0.288034 q -0.126416,-0.07361 -0.254431,-0.110413 -0.128015,-0.0368 -0.260831,-0.0368 -0.200024,0 -0.299236,0.06561 -0.09761,0.06401 -0.09761,0.196823 0,0.120014 0.07361,0.179222 0.07361,0.05921 0.366444,0.115213 l 0.118414,0.0224 q 0.219226,0.04161 0.33124,0.16642 0.113613,0.124815 0.113613,0.324839 0,0.265632 -0.188822,0.41605 -0.188823,0.148817 -0.524863,0.148817 -0.132816,0 -0.278433,-0.0288 -0.145618,-0.0272 -0.315238,-0.08321 l 0,-0.304036 q 0.16482,0.08481 0.315238,0.128015 0.150418,0.04161 0.284834,0.04161 0.195223,0 0.302436,-0.07841 0.107213,-0.08001 0.107213,-0.222426 0,-0.204825 -0.392047,-0.283234 l -0.0128,-0.0032 -0.110413,-0.0224 q -0.25443,-0.04961 -0.371244,-0.16642 -0.116814,-0.118414 -0.116814,-0.321638 0,-0.257631 0.174421,-0.396848 0.174421,-0.140817 0.497659,-0.140817 0.144017,0 0.276833,0.0272 0.132816,0.0256 0.260832,0.07841 z"
           style="font-style:normal;font-variant:normal;font-weight:normal;font-stretch:normal;font-size:3.27719212px;font-family:'DejaVu Sans Mono';-inkscape-font-specification:'DejaVu Sans Mono';fill:#ffffff"
           id="path12697" />
      </g>
      <path
         inkscape:export-ydpi="90"
         inkscape:export-xdpi="90"
         inkscape:export-filename="/home/blmwielens/Mooltipass/ui/elements/wrench.png"
         sodipodi:nodetypes="cccccscscccc"
         inkscape:connector-curvature="0"
         id="path4314"
         d="m 73.661248,77.546951 0.663396,0.663396 1.769056,-1.769056 c 0,0 1.326793,0.442263 1.769056,-1.10566 l -0.331697,-0.331698 c 0,0 -0.340558,0.747704 -0.647366,0.679425 l -0.56886,-0.126596 -0.113388,-0.555651 c -0.06298,-0.308639 0.666217,-0.660575 0.666217,-0.660575 l -0.331698,-0.331698 c -1.547924,0.442264 -1.021365,1.769056 -1.021365,1.769056 z"
         style="opacity:0.98814231;fill:none;stroke:#ffffff;stroke-width:0.44226411;stroke-linecap:round;stroke-linejoin:round;stroke-miterlimit:4;stroke-opacity:1;stroke-dasharray:none;stroke-dashoffset:6.4000001" />
    </g>
    <g
       id="g5605">
      <rect
         ry="0.025217904"
         rx="0"
         y="55.308804"
         x="-100.5421"
         height="1.6139458"
         width="25.703249"
         id="rect3072"
         style="fill:#000000;fill-opacity:1;stroke:#000000;stroke-width:0.26375270000000001;stroke-miterlimit:4;stroke-dasharray:none" />
      <path
         inkscape:connector-curvature="0"
         id="path3850"
         d="m -100.54168,55.031456 c 0,1.931146 0,2.025021 0,2.025021 l 0,0"
         style="fill:none;stroke:#666666;stroke-width:0.26500666;stroke-linecap:butt;stroke-linejoin:miter;stroke-miterlimit:4;stroke-opacity:1;stroke-dasharray:none" />
      <path
         style="fill:none;stroke:#666666;stroke-width:0.26500666;stroke-linecap:butt;stroke-linejoin:miter;stroke-miterlimit:4;stroke-opacity:1;stroke-dasharray:none"
         d="m -74.839296,55.031456 c 0,1.931146 0,2.025021 0,2.025021 l 0,0"
         id="path3863"
         inkscape:connector-curvature="0" />
    </g>
  </g>
</svg>
